<?xml version="1.0" encoding="utf-8"?>
<!-- Generator: Adobe Illustrator 21.1.0, SVG Export Plug-In . SVG Version: 6.00 Build 0)  -->
<svg version="1.1" id="Layer_1" xmlns="http://www.w3.org/2000/svg" xmlns:xlink="http://www.w3.org/1999/xlink" x="0px" y="0px"
	 viewBox="0 0 531.5 482.9" style="enable-background:new 0 0 531.5 482.9;" xml:space="preserve">
<style type="text/css">
	.st0{fill:#19A8E0;}
	.st1{opacity:0.75;}
</style>
<path class="st0" d="M531.3,395.7c-1.5-28.2-16-55.9-40.2-70.5c-17.9-10.8-39.1-14.6-59.1-20.8c-31.2-9.7-61-26.3-81.7-51.6
	c-20.6-25.3-31-60.1-22.3-91.6c5.1-18.5,16.2-35,21.2-53.5c9-33-4.2-70.9-31.8-91.3C290-4,249.9-5.5,220.9,12.8
	C192,31,176,67.9,182.6,101.5c4.3,22.1,17.1,41.8,21.4,63.9c6.5,34-8.7,69.7-33.2,94.3c-24.4,24.6-57,39.4-90.1,49.9
	c-31.5,10-59.1,20.5-73.3,52.7c-13.5,30.5-8.4,68.9,14.3,93.6c26.2,28.6,73.1,35.6,106.5,15.8c16.7-9.9,29.4-25.1,44.2-37.6
	c47.8-40.8,123.7-50.7,173.8-12.9c20.6,15.6,36,37.9,58.3,50.9c38.5,22.3,93.6,7.8,116.2-30.5C528.8,427.7,532.2,411.6,531.3,395.7z
	 M85.3,433.8c-19.9,0-36-16.1-36-36s16.1-36,36-36s36,16.1,36,36S105.2,433.8,85.3,433.8z M266.3,121.8c-19.9,0-36-16.1-36-36
	s16.1-36,36-36s36,16.1,36,36S286.2,121.8,266.3,121.8z M446.3,433.8c-19.9,0-36-16.1-36-36s16.1-36,36-36s36,16.1,36,36
	S466.2,433.8,446.3,433.8z M343.7,48.3c-0.1-0.1-0.1-0.2-0.2-0.3c0.1,0.2,0.2,0.3,0.2,0.5C343.8,48.5,343.8,48.4,343.7,48.3z"/>
<path class="st1" d="M266.3,24.8c-33.7,0-61,27.3-61,61s27.3,61,61,61s61-27.3,61-61S300,24.8,266.3,24.8z M266.3,121.8
	c-19.9,0-36-16.1-36-36s16.1-36,36-36s36,16.1,36,36S286.2,121.8,266.3,121.8z"/>
<path class="st1" d="M446.3,336.8c-33.7,0-61,27.3-61,61s27.3,61,61,61s61-27.3,61-61S480,336.8,446.3,336.8z M446.3,433.8
	c-19.9,0-36-16.1-36-36s16.1-36,36-36s36,16.1,36,36S466.2,433.8,446.3,433.8z"/>
<path class="st1" d="M85.3,336.8c-33.7,0-61,27.3-61,61s27.3,61,61,61s61-27.3,61-61S119,336.8,85.3,336.8z M85.3,433.8
	c-19.9,0-36-16.1-36-36s16.1-36,36-36s36,16.1,36,36S105.2,433.8,85.3,433.8z"/>
<circle class="st1" cx="265.3" cy="300.8" r="79"/>
</svg>
