<?xml version="1.0" encoding="utf-8"?>
<!-- Generator: Adobe Illustrator 21.1.0, SVG Export Plug-In . SVG Version: 6.00 Build 0)  -->
<svg version="1.1" id="Layer_1" xmlns="http://www.w3.org/2000/svg" xmlns:xlink="http://www.w3.org/1999/xlink" x="0px" y="0px"
	 viewBox="0 0 603.8 603.8" style="enable-background:new 0 0 603.8 603.8;" xml:space="preserve">
<style type="text/css">
	.st0{fill:#2196F3;}
	.st1{opacity:0.75;enable-background:new    ;}
</style>
<path class="st0" d="M567.5,397c-1.5-28.2-16-55.9-40.2-70.5c-17.9-10.8-39.1-14.6-59.1-20.8c-31.2-9.7-61-26.3-81.7-51.6
	c-20.6-25.3-31-60.1-22.3-91.6c5.1-18.5,16.2-35,21.2-53.5c9-33-4.2-70.9-31.8-91.3c-27.4-20.4-67.5-21.9-96.5-3.6
	c-28.9,18.2-44.9,55.1-38.3,88.7c4.3,22.1,17.1,41.8,21.4,63.9c6.5,34-8.7,69.7-33.2,94.3c-24.4,24.6-57,39.4-90.1,49.9
	c-31.5,10-59.1,20.5-73.3,52.7c-13.5,30.5-8.4,68.9,14.3,93.6c26.2,28.6,73.1,35.6,106.5,15.8c16.7-9.9,29.4-25.1,44.2-37.6
	c47.8-40.8,123.7-50.7,173.8-12.9c20.6,15.6,36,37.9,58.3,50.9c38.5,22.3,93.6,7.8,116.2-30.5C565,429,568.4,412.9,567.5,397z
	 M121.5,435.1c-19.9,0-36-16.1-36-36s16.1-36,36-36s36,16.1,36,36S141.4,435.1,121.5,435.1z M302.5,123.1c-19.9,0-36-16.1-36-36
	s16.1-36,36-36s36,16.1,36,36S322.4,123.1,302.5,123.1z M482.5,435.1c-19.9,0-36-16.1-36-36s16.1-36,36-36s36,16.1,36,36
	S502.4,435.1,482.5,435.1z M379.9,49.6c-0.1-0.1-0.1-0.2-0.2-0.3c0.1,0.2,0.2,0.3,0.2,0.5C380,49.8,380,49.7,379.9,49.6z"/>
<path class="st1" d="M302.5,26.1c-33.7,0-61,27.3-61,61s27.3,61,61,61s61-27.3,61-61S336.2,26.1,302.5,26.1z M302.5,123.1
	c-19.9,0-36-16.1-36-36s16.1-36,36-36s36,16.1,36,36S322.4,123.1,302.5,123.1z"/>
<path class="st1" d="M482.5,338.1c-33.7,0-61,27.3-61,61s27.3,61,61,61s61-27.3,61-61S516.2,338.1,482.5,338.1z M482.5,435.1
	c-19.9,0-36-16.1-36-36s16.1-36,36-36s36,16.1,36,36S502.4,435.1,482.5,435.1z"/>
<path class="st1" d="M121.5,338.1c-33.7,0-61,27.3-61,61s27.3,61,61,61s61-27.3,61-61S155.2,338.1,121.5,338.1z M121.5,435.1
	c-19.9,0-36-16.1-36-36s16.1-36,36-36s36,16.1,36,36S141.4,435.1,121.5,435.1z"/>
<circle class="st1" cx="301.5" cy="302.1" r="79"/>
</svg>
