<?xml version="1.0" encoding="utf-8"?>
<!-- Generator: Adobe Illustrator 21.1.0, SVG Export Plug-In . SVG Version: 6.00 Build 0)  -->
<svg version="1.1" id="Layer_1" xmlns="http://www.w3.org/2000/svg" xmlns:xlink="http://www.w3.org/1999/xlink" x="0px" y="0px"
	 viewBox="0 0 514.3 467.9" style="enable-background:new 0 0 514.3 467.9;" xml:space="preserve">
<style type="text/css">
	.st0{fill:#19A8E0;}
	.st1{opacity:0.7;}
</style>
<g>
	<g>
		<g>
			<path class="st0" d="M304.6,354.7c0.8-0.5,1.7-1.1,2.5-1.7C306.3,353.6,305.5,354.2,304.6,354.7z"/>
		</g>
	</g>
	<g>
		<g>
			<path class="st0" d="M480.8,317.5c-12.5-9.1-26.9-14.3-41.9-18.6c-20.7-6-42.5-10.2-61.4-20.3c-35.1-18.8-57.5-58.9-55.1-98.6
				c2.3-38.3,25.5-74.7,20-112.6c-4.5-31.1-29.7-57.8-60.2-65.2c-30.5-7.4-64.5,4.3-84.9,28.2c-20.4,23.9-26.8,58.6-17.2,88.5
				c4.9,15.4,13.6,29.5,17.5,45.2c9.6,38.8-18.3,95.7-52.3,116.1c-28,16.7-64.2,11.2-94.2,23.9c-30.1,12.7-51,44.4-51,77
				c0,32.6,20.7,64.3,50.5,77.5c29.8,13.3,67,7.6,91.7-13.7c14.8-12.8,24.9-30.1,38.8-43.9c37-36.7,102-41.1,142.6-8.4
				c23.1,18.6,37.8,46.8,62.8,62.9c36.2,23.4,90.1,12.5,114.4-23C525.1,397,515.7,342.8,480.8,317.5z M84.8,421.2
				c-20.7,0-37.5-16.8-37.5-37.5c0-20.7,16.8-37.5,37.5-37.5s37.5,16.8,37.5,37.5C122.2,404.5,105.5,421.2,84.8,421.2z M262.8,48.2
				c20.7,0,37.5,16.8,37.5,37.5c0,20.7-16.8,37.5-37.5,37.5s-37.5-16.8-37.5-37.5C225.2,65,242,48.2,262.8,48.2z M430.8,421.2
				c-20.7,0-37.5-16.8-37.5-37.5c0-20.7,16.8-37.5,37.5-37.5s37.5,16.8,37.5,37.5C468.2,404.5,451.5,421.2,430.8,421.2z"/>
		</g>
		<g>
			<path class="st0" d="M304.6,354.7c0.8-0.5,1.7-1.1,2.5-1.7C306.3,353.6,305.5,354.2,304.6,354.7z"/>
		</g>
		<g>
			<path class="st0" d="M332.3,238.8c0-0.1-0.1-0.2-0.1-0.2C332.2,238.6,332.3,238.7,332.3,238.8
				C332.3,238.7,332.3,238.7,332.3,238.8C332.3,238.8,332.3,238.8,332.3,238.8z"/>
		</g>
	</g>
</g>
<g class="st1">
	<circle cx="258.8" cy="280.7" r="73.5"/>
	<path d="M262.8,33.2c-29,0-52.5,23.5-52.5,52.5s23.5,52.5,52.5,52.5s52.5-23.5,52.5-52.5S291.7,33.2,262.8,33.2z M262.8,123.2
		c-20.7,0-37.5-16.8-37.5-37.5c0-20.7,16.8-37.5,37.5-37.5s37.5,16.8,37.5,37.5C300.2,106.5,283.5,123.2,262.8,123.2z"/>
	<path d="M430.8,331.2c-29,0-52.5,23.5-52.5,52.5s23.5,52.5,52.5,52.5s52.5-23.5,52.5-52.5S459.7,331.2,430.8,331.2z M430.8,421.2
		c-20.7,0-37.5-16.8-37.5-37.5c0-20.7,16.8-37.5,37.5-37.5s37.5,16.8,37.5,37.5C468.2,404.5,451.5,421.2,430.8,421.2z"/>
	<path d="M84.8,331.2c-29,0-52.5,23.5-52.5,52.5s23.5,52.5,52.5,52.5s52.5-23.5,52.5-52.5S113.7,331.2,84.8,331.2z M84.8,421.2
		c-20.7,0-37.5-16.8-37.5-37.5c0-20.7,16.8-37.5,37.5-37.5s37.5,16.8,37.5,37.5C122.2,404.5,105.5,421.2,84.8,421.2z"/>
</g>
</svg>
